<svg height="512" viewBox="0 0 512 512" width="512" xmlns="http://www.w3.org/2000/svg"><g id="Filled_outline" data-name="Filled outline"><g fill="#8a5034"><path d="m112 488v-6.557a107.171 107.171 0 0 1 88-105.443v40l-3.761 11.284a88.8 88.8 0 0 1 -84.239 60.716z"/><path d="m400 481.44v6.56a88.731 88.731 0 0 1 -84.24-60.71l-3.76-11.29v-40a107.187 107.187 0 0 1 88 105.44z"/><path d="m200 128-13.632-20.449a61.872 61.872 0 0 0 -51.481-27.551 61.869 61.869 0 0 0 -40.265 14.9l-7.791 6.678a179.923 179.923 0 0 0 -47.324 63.532 179.918 179.918 0 0 0 -15.507 73.075v4.333a13.484 13.484 0 0 0 13.484 13.482 13.485 13.485 0 0 0 11.872-7.091l21.718-40.334a92.382 92.382 0 0 1 23.626-28.333 92.367 92.367 0 0 1 57.7-20.242h7.6z"/><path d="m488 238.19v4.33a13.488 13.488 0 0 1 -25.36 6.39l-21.72-40.33a92.218 92.218 0 0 0 -49.3-42.84c-.48-.19-.96-.36-1.45-.53a92.142 92.142 0 0 0 -30.57-5.21h-7.6l-40-32 13.63-20.45c1.07-1.61 2.21-3.15 3.42-4.64a61.883 61.883 0 0 1 88.33-8.01l7.79 6.67a179.967 179.967 0 0 1 62.83 136.62z"/><path d="m280 416v8l-6.05 24.2-8.01 32.04a10.248 10.248 0 0 1 -19.88 0l-9.32-37.29-4.74-18.95v-8z"/><path d="m288 75.78v44.22h-64v-44.22a57.9 57.9 0 0 1 32-51.78 57.9 57.9 0 0 1 23.35 21.34c.18.3.36.6.53.9a57.749 57.749 0 0 1 8.12 29.54z"/></g><path d="m288 75.78v44.22h-60.6c17.79-14.63 36.36-37.55 52.48-73.76a57.749 57.749 0 0 1 8.12 29.54z" fill="#7a432a"/><path d="m391.62 165.74c-.48-.19-.96-.36-1.45-.53a92.142 92.142 0 0 0 -30.57-5.21h-7.6l-40-32 13.63-20.45c1.07-1.61 2.21-3.15 3.42-4.64 24.92 14.28 46.43 35.99 62.57 62.83z" fill="#7a432a"/><path d="m280 416v8l-6.05 24.2a171.846 171.846 0 0 1 -37.21-5.25l-4.74-18.95v-8z" fill="#7a432a"/><path d="m368.16 405.22a198.989 198.989 0 0 1 -47.9 33.07 89.273 89.273 0 0 1 -4.5-11l-3.76-11.29v-40a106.94 106.94 0 0 1 56.16 29.22z" fill="#7a432a"/><ellipse cx="256.059" cy="264.062" fill="#ffb531" rx="144" ry="176"/><path d="m352.931 133.841c-33.993 142.624-130.862 220.849-195.505 258.389 25.772 29.638 60.454 47.832 98.633 47.832 79.529 0 144-78.8 144-176 0-51.609-18.175-98.028-47.128-130.221z" fill="#ffa912"/><path d="m368.06 264.06c0 79.4-50.25 144-112 144-27.37 0-52.47-12.69-71.94-33.72-24.48-26.44-40.06-66.06-40.06-110.28 0-79.4 50.24-144 112-144 32.32 0 61.48 17.69 81.94 45.94 18.65 25.73 30.06 60.21 30.06 98.06z" fill="#f98500"/><path d="m368.06 264.06c0 79.4-50.25 144-112 144-27.37 0-52.47-12.69-71.94-33.72 52.49-40.64 110.43-105.54 153.88-208.34 18.65 25.73 30.06 60.21 30.06 98.06z" fill="#f27900"/><path d="m82.152 140.977-16.523 22.328 12.859 9.515 16.34-22.086a138.609 138.609 0 0 1 12.262-13.429l-11.09-11.547a155.672 155.672 0 0 0 -13.848 15.219z"/><path d="m120.7 125.344a21.918 21.918 0 0 1 14.254-5.282v-16a37.9 37.9 0 0 0 -24.668 9.141z"/><path d="m430.4 95.523-7.754-6.64a69.733 69.733 0 0 0 -100.142 9.728 135.755 135.755 0 0 0 -26.428-12.03v-10.737a65.954 65.954 0 0 0 -9.808-34.578 65.013 65.013 0 0 0 -26.637-24.352 8.037 8.037 0 0 0 -7.121 0 65.456 65.456 0 0 0 -36.434 58.93v10.723a135.665 135.665 0 0 0 -26.476 12.049 69.662 69.662 0 0 0 -100.053-9.757l-7.879 6.672a188.108 188.108 0 0 0 -49.368 66.414 186.015 186.015 0 0 0 -16.219 76.3v4.32a21.48 21.48 0 0 0 40.41 10.188l21.669-40.315a83.89 83.89 0 0 1 45.882-39.4 213.234 213.234 0 0 0 -19.983 91.02c0 49.723 16.4 94.87 42.969 128.016a115.042 115.042 0 0 0 -42.95 89.445v6.555a8 8 0 0 0 8 8 96.638 96.638 0 0 0 89.583-60.245 130.825 130.825 0 0 0 27.385 9.261l9.3 37.265a18.379 18.379 0 0 0 17.734 13.719 18.158 18.158 0 0 0 17.684-13.82l9.271-37.155a130.89 130.89 0 0 0 27.458-9.287 96.636 96.636 0 0 0 89.587 60.262 8 8 0 0 0 8-8v-6.555a115.025 115.025 0 0 0 -42.968-89.472c26.554-33.144 42.949-78.279 42.949-127.989a213.23 213.23 0 0 0 -19.993-91.04 85.136 85.136 0 0 1 24.289 13.54 83.192 83.192 0 0 1 21.567 25.876l21.721 40.266a21.312 21.312 0 0 0 18.914 11.383 21.538 21.538 0 0 0 21.519-21.516v-4.32a188.124 188.124 0 0 0 -65.678-142.724zm-130.059 327.214-7.113-14.228a113.585 113.585 0 0 0 34.642-22.958l13.6 9.068a131.139 131.139 0 0 1 -41.129 28.118zm-129.7-28.118 13.6-9.068a113.577 113.577 0 0 0 34.643 22.958l-7.114 14.228a131.139 131.139 0 0 1 -41.124-28.118zm41.13-289.231 7.114 14.228a113.226 113.226 0 0 0 -33.8 22.162l-11.234-11.235a129.91 129.91 0 0 1 37.925-25.155zm44.283-9.326a111.1 111.1 0 0 1 29.074 3.961l-7.328 14.665a91.315 91.315 0 0 0 -43.483 0l-7.333-14.665a111.1 111.1 0 0 1 29.075-3.961zm88.068 96h-35.122l-12-24 10.872-21.744c14.766 11.154 27.209 26.892 36.255 45.744zm-36.246 189.745-10.876-21.745 12-24h35.123c-9.042 18.853-21.485 34.591-36.247 45.745zm-51.817 18.255a82.508 82.508 0 0 1 -38.233-9.644l11.174-22.356h54.109l11.179 22.356a82.514 82.514 0 0 1 -38.229 9.644zm-88.069-64h35.123l12 24-10.872 21.745c-14.762-11.154-27.205-26.892-36.251-45.745zm36.251-189.744 10.872 21.744-12 24h-35.123c9.046-18.852 21.489-34.59 36.251-45.744zm90.872 117.744-12 24h-54.113l-12-24 12-24h54.109zm-66.109 88-12-24 12-24h54.109l12 24-12 24zm54.109-176 12 24-12 24h-54.113l-12-24 12-24zm-121.72 32h41.72l12 24-12 24h-50.744a169.521 169.521 0 0 1 9.024-48zm-9.024 64h50.744l12 24-12 24h-41.72a169.508 169.508 0 0 1 -9.024-48zm198.356 48h-41.725l-12-24 12-24h50.745a169.577 169.577 0 0 1 -9.02 48zm9.024-64h-50.749l-12-24 12-24h41.721a169.591 169.591 0 0 1 9.028 48zm-76.636-96h-54.113l-11.178-22.355a80.6 80.6 0 0 1 76.466 0zm-120.313-17.949 11.27 11.271a153.552 153.552 0 0 0 -23.282 37.824l-15.116-5.038a170.056 170.056 0 0 1 27.128-44.057zm-32.753 59.041 15.1 5.034a185.625 185.625 0 0 0 -8.768 49.874h-15.992a200.779 200.779 0 0 1 9.657-54.908zm6.334 70.908a185.625 185.625 0 0 0 8.768 49.875l-15.1 5.034a200.78 200.78 0 0 1 -9.657-54.909zm14.407 64.855a154.1 154.1 0 0 0 22.384 36.791l-13.366 8.91a171.878 171.878 0 0 1 -24.134-40.663zm83.532 76.52a91.349 91.349 0 0 0 43.483 0l7.333 14.665a108.713 108.713 0 0 1 -58.149 0zm118-30.819-13.366-8.91a154.1 154.1 0 0 0 22.384-36.791l15.116 5.038a171.878 171.878 0 0 1 -24.14 40.663zm14.657-60.681a185.625 185.625 0 0 0 8.768-49.875h15.985a200.742 200.742 0 0 1 -9.657 54.909zm8.768-65.875a185.625 185.625 0 0 0 -8.768-49.874l15.1-5.034a200.742 200.742 0 0 1 9.657 54.908zm.709-69.892-15.116 5.038a153.522 153.522 0 0 0 -23.282-37.824l11.27-11.271a170.056 170.056 0 0 1 27.122 44.057zm-49.417-44.392a113.234 113.234 0 0 0 -33.8-22.162l7.113-14.228a129.91 129.91 0 0 1 37.924 25.155zm-94.959-65.934a50.231 50.231 0 0 1 24.012-42.644 48.925 48.925 0 0 1 16.539 16.43 49.953 49.953 0 0 1 7.449 26.211v6.538a125.51 125.51 0 0 0 -48-.008zm-112.812 81.89a100.1 100.1 0 0 0 -55.192 47.118l-21.652 40.273a5.613 5.613 0 0 1 -4.9 2.953 5.487 5.487 0 0 1 -5.442-5.516v-4.32a170.17 170.17 0 0 1 14.842-69.812 172.1 172.1 0 0 1 45.129-60.73l7.875-6.664a53.765 53.765 0 0 1 76.384 6.469 168.751 168.751 0 0 0 -41.882 46.329 95.67 95.67 0 0 0 -15.162 3.9zm.828 321.946a99.2 99.2 0 0 1 37.52-75.589 154.048 154.048 0 0 0 29.746 24.025 80.565 80.565 0 0 1 -67.266 51.564zm138.136-1.266c-.5 2.016-3.878 1.9-4.39-.031l-7.671-30.752c3.273.256 6.564.431 9.89.431s6.591-.174 9.852-.428zm133.832 1.266a80.562 80.562 0 0 1 -67.273-51.58 154.073 154.073 0 0 0 29.75-24.043 99.065 99.065 0 0 1 37.523 75.623zm88.016-237.118a5.525 5.525 0 0 1 -5.519 5.516 5.4 5.4 0 0 1 -4.8-2.914l-21.739-40.281a98.924 98.924 0 0 0 -25.676-30.821 101.045 101.045 0 0 0 -29.444-16.328 95.758 95.758 0 0 0 -15.211-3.906 168.776 168.776 0 0 0 -41.889-46.328 53.835 53.835 0 0 1 76.438-6.463l7.75 6.633a172.119 172.119 0 0 1 60.09 130.57z"/><path d="m232.059 192.063h16v16h-16z"/><path d="m232.059 256.063h16v16h-16z"/><path d="m176.059 224.063h16v16h-16z"/><path d="m176.059 288.063h16v16h-16z"/><path d="m312.059 224.063h16v16h-16z"/><path d="m312.059 288.063h16v16h-16z"/><path d="m232.059 320.063h16v16h-16z"/></g></svg>